<svg width="192" height="80" viewBox="0 0 192 80" fill="none" xmlns="http://www.w3.org/2000/svg">
<g clip-path="url(#clip0_6389_14784)">
<path d="M44.7465 44.7412C41.8489 44.7412 39.4212 42.2514 39.4995 39.1391C39.4995 36.1046 41.9272 33.6148 44.8248 33.6148C47.7224 33.6148 50.15 36.1046 50.0717 39.2169C50.0717 42.2514 47.6441 44.7412 44.7465 44.7412ZM44.8248 28.0126C38.6381 27.9349 33.5478 32.9145 33.5478 39.1391C33.4695 45.2859 38.4815 50.3433 44.7465 50.3433C50.9332 50.4212 56.0235 45.4415 56.0235 39.2169C56.0235 32.9923 51.0115 28.0905 44.8248 28.0126Z" fill="white"/>
<path d="M66.5161 44.5078L70.2751 50.1099L77.2449 50.1878L70.0402 39.3725L77.4015 28.6351H70.4317L66.5944 34.1594L62.7571 28.5573H55.7873L62.9921 39.2947L55.6307 50.0321H62.6788L66.5161 44.5078ZM17.5708 28.2461H10.8359L22.0346 50.1099L33.5465 28.4017L26.89 28.3239L22.113 37.2718L17.5708 28.2461Z" fill="white"/>
<path d="M150.439 50.6237L150.583 29.1489L156.613 29.1888L156.469 50.6636L150.439 50.6237ZM114.442 44.9746V42.2514L123.917 42.3292L123.996 37.116L114.442 37.0383V34.3928H124.779V28.9463L108.177 28.8685L108.098 50.3433L124.622 50.4989L124.7 45.0524L114.442 44.9746ZM136.291 45.1302H133.785L133.863 34.5484H136.369C139.345 34.5484 141.694 36.9605 141.694 39.8393C141.694 42.7182 139.267 45.1302 136.291 45.1302ZM136.917 29.102L127.833 29.0241L127.676 50.4989L136.761 50.5767C142.712 50.6545 147.646 45.8305 147.646 39.9172C147.724 33.926 142.869 29.102 136.917 29.102ZM167.146 43.5741L169.887 35.6377L172.549 43.5741H167.146ZM174.899 50.8102L181.164 50.8879L173.489 29.3354L166.441 29.2575L158.531 50.6545L164.796 50.7324L165.658 48.3981L174.194 48.476L174.899 50.8102ZM86.249 38.361L92.3574 50.2655L98.7007 38.4388L98.6224 50.2655L104.652 50.3433L104.731 28.8685L97.2128 28.7907L92.514 37.7385L87.8936 28.7129H80.2973L80.1406 50.1877H86.1707L86.249 38.361Z" fill="#EF5654"/>
</g>
<defs>
<clipPath id="clip0_6389_14784">
<rect width="170.5" height="22" fill="white" transform="translate(10.75 29)"/>
</clipPath>
</defs>
</svg>
