<svg width="192" height="80" viewBox="0 0 192 80" fill="none" xmlns="http://www.w3.org/2000/svg">
<g clip-path="url(#clip0_6384_14744)">
<path fill-rule="evenodd" clip-rule="evenodd" d="M1 32H13.7361V36.2169H12.2053C11.4093 36.2169 11.2256 36.5181 11.2256 37.241V46.8795C11.2256 47.3614 11.6542 47.7831 12.1441 47.7831H12.2053H15.8791C16.4302 47.8434 16.9201 47.3614 16.9813 46.8193V46.759V43.2651H22.0635V51.9398H1V47.7229H2.46955C3.14309 47.7229 3.51047 47.4819 3.51047 46.8193V37.241C3.51047 36.6386 3.44924 36.2771 2.59201 36.2771H1V32ZM24.2678 32H45.2701V38.4458H40.0042V37.4217C40.0042 36.759 39.698 36.2771 38.6571 36.2771H34.0648V39.8916H39.0245V43.747H34.126V47.7831H38.902C39.4531 47.8434 39.943 47.4217 40.0042 46.8193C40.0042 46.759 40.0042 46.6988 40.0042 46.6386V45.6145H45.2701V52H24.2678V47.7831H25.4924C26.1047 47.7831 26.4721 47.5422 26.4721 46.9398V37.241C26.4721 36.6386 26.4109 36.2169 25.5537 36.2169H24.329L24.2678 32ZM55.6793 32H77.1102V38.4458H71.9056V37.4217C71.9668 36.8795 71.5382 36.3976 70.9259 36.3373C70.8646 36.3373 70.8034 36.3373 70.7422 36.3373H65.9662V39.9518H70.3748V43.747H65.9662V46.6386C65.9662 47.4819 66.3336 47.7831 67.3745 47.7831H69.0277V52H55.6793V47.7831H57.455C57.8837 47.8434 58.2511 47.4819 58.3123 47.0602C58.3123 47 58.3123 47 58.3123 46.9398V37.241C58.3123 36.6386 58.2511 36.2169 57.3938 36.2169H55.6793V32ZM89.2952 37.241C89.2952 36.5181 89.5401 36.2771 90.2749 36.2771H91.8669V32.0602H79.1921V36.2771H80.7841C81.6413 36.2771 81.7638 36.6386 81.7638 37.241V46.8795C81.7638 47.6024 81.3352 47.7831 80.7841 47.7831H79.1921V52H91.8669V47.7831H90.3361C89.7238 47.7831 89.2952 47.5422 89.2952 46.8795V37.241ZM110.542 32H115.012V39.0482H110.481C109.563 37.1807 107.665 35.9759 105.583 35.9759C102.827 35.9759 100.684 37.9036 100.684 41.5181C100.684 47.5422 104.113 48.1446 105.583 48.1446C108.644 48.1446 109.318 45.9759 109.318 45.1325H106.501V41.4578H116.237L116.176 43.988C116.176 44.5301 115.625 51.9398 104.725 51.9398C96.8879 51.9398 92.8466 47.9036 92.8466 41.5783C92.8466 37.3614 96.2143 32 104.174 32C108.644 32 110.542 33.506 110.542 33.506V32ZM139.995 47.7229C139.076 47.7229 138.831 46.9398 138.341 45.7349L132.953 32H125.177L119.666 46.759C119.421 47.3614 118.747 47.7831 118.074 47.7229H116.972V51.9398H126.524V47.9036H125.177C124.564 47.9036 124.503 47.4819 124.687 46.8795L125.299 45.0723H131.055L131.667 47C131.912 47.6627 131.177 47.9036 130.749 47.9036H129.585V51.9398H141.035V47.7229H139.995ZM126.218 42.3614L128.177 36.5181H128.238L130.198 42.3614H126.218ZM166.936 47.7229C166.14 47.7229 166.018 47.3614 165.65 46.8193C165.222 46.3373 162.834 42.6024 162.834 42.6024C162.834 42.6024 166.385 41.6386 166.385 37.9036C166.385 34.1687 163.201 32.9036 161.854 32.4819C160.507 32.1807 157.568 32 156.833 32H142.995V36.2169H144.342C145.199 36.2169 145.322 36.6988 145.322 37.241V46.6988C145.322 47.1205 145.26 47.7229 144.342 47.7229H142.995V51.9398H155.18V47.7229H153.955C153.098 47.7229 152.976 47.241 152.976 46.759V43.5663H155.731L160.629 52H168.345V47.7229C168.345 47.7229 166.936 47.7229 166.936 47.7229ZM155.731 40.0723H152.976V36.0361H156.037C156.833 36.0361 158.425 36.3373 158.425 38.1446C158.425 39.4699 157.384 40.1325 155.731 40.0723ZM179.489 32C171.039 32 168.038 37.3012 168.038 41.8193C168.038 47.7229 172.325 51.9398 179.489 51.9398C185.979 51.9398 191 48.8072 191 42.0602C191 35.6145 186.102 32 179.489 32ZM179.795 48.0843C177.958 48.0843 175.937 47 175.937 41.4578C175.937 38.0241 177.284 35.9157 179.611 35.9157C181.754 35.9157 183.285 37.3614 183.285 41.8193C183.285 46.6988 181.693 48.0843 179.795 48.0843Z" fill="white"/>
<path fill-rule="evenodd" clip-rule="evenodd" d="M70.8071 46.4578C72.7665 48.0843 74.5422 49.9518 76.0118 52L75.2158 51.3976C73.1952 49.2289 73.0727 49.2892 71.3582 47.7831C70.2561 46.8193 69.0314 45.9759 67.6844 45.3133L65.9699 44.5904V43.6867H68.0517C68.7865 44.5301 69.8274 45.5542 70.8071 46.4578ZM57.6425 32C61.5613 33.6265 63.1533 37.4217 63.1533 37.4217V43.6867C63.1533 43.6867 59.9692 43.0241 55.928 40.3133L57.8262 40.4337C57.8262 40.4337 53.4175 38.2048 52.0704 36.6386C52.6827 36.8795 53.2951 37 53.9074 37.1205C53.9074 37.1205 50.6009 35.3735 49.4375 30.6145C49.6824 30.9759 50.0498 31.2169 50.4172 31.3976C49.9273 29.9518 49.6824 28.506 49.6212 27C49.6212 27 53.2951 31.1566 57.5812 32.4217C57.7037 32.4217 57.5812 32 57.6425 32Z" fill="#4A90E2"/>
</g>
<defs>
<clipPath id="clip0_6384_14744">
<rect width="190" height="25" fill="white" transform="translate(1 27)"/>
</clipPath>
</defs>
</svg>
