<svg width="192" height="80" viewBox="0 0 192 80" fill="none" xmlns="http://www.w3.org/2000/svg">
<path d="M105.721 48.3532C105.721 61.7337 100.077 65.1268 88.5334 70.7607C90.0084 71.721 91.9966 72.9374 95.3956 74.5379C104.246 70.3765 112.776 64.8707 112.776 50.2739V19.3516H105.721V48.3532ZM98.987 19.3516H78.0156V25.4976H91.9324V45.1522C91.9324 54.1151 91.3552 54.9474 79.6831 60.1972C80.5168 62.2458 81.6712 64.2305 83.2104 66.0871C96.4217 60.1972 98.987 57.1882 98.987 47.0088V19.3516ZM80.7733 5.45898V10.9008C80.7733 12.3093 79.9396 13.2696 78.2722 13.2696H78.0156V12.1172H78.208C78.9776 12.1172 79.4265 11.7331 79.4265 10.9008V6.61137H78.208V5.45898H80.7733ZM83.1462 12.1172H84.3648V5.45898H85.6474V11.9892C85.6474 12.8214 85.1985 13.2056 84.3648 13.2056H83.1462C82.3125 13.2056 81.8636 12.7574 81.8636 11.9892V5.45898H83.1462V12.1172ZM89.1747 10.2606V5.52301H90.4574V10.3246C90.4574 12.5013 89.303 13.2696 87.3149 13.2696H86.6735V5.45898H87.9562V11.9251H88.0203C88.8541 11.9892 89.1747 11.2209 89.1747 10.2606ZM92.8303 6.67539V8.72407H94.3053L94.0488 9.81243H92.7662V12.0532H94.6901L94.4977 13.2056H91.5476V5.45898H94.4336L94.626 6.61137H92.8303V6.67539ZM98.025 5.45898H99.2436V13.2056H98.025V10.5807L96.8065 7.89179H96.7424V13.2056H95.5239V5.45898H96.7424L97.9609 8.40396H98.025V5.45898ZM103.733 6.67539H102.514V13.2696H101.232V6.67539H100.013L100.206 5.52301H103.54L103.733 6.67539ZM105.657 12.1172H106.875V5.52301H108.158V12.0532C108.158 12.8855 107.709 13.2696 106.875 13.2696H105.657C104.823 13.2696 104.374 12.8214 104.374 12.0532V5.52301H105.657V12.1172ZM109.12 10.7087H110.403V12.2452H111.557V11.1569C111.557 10.6447 111.429 10.3886 111.044 10.1325L109.825 9.36428C109.377 9.04417 109.184 8.53201 109.184 8.14788V6.73941C109.184 5.90713 109.697 5.52301 110.403 5.52301H111.621C112.455 5.52301 112.84 5.97115 112.84 6.73941V7.69973L111.621 8.01983V6.48332H110.531V7.63571C110.531 8.01984 110.659 8.27592 111.044 8.53201L112.198 9.23624C112.711 9.55635 112.968 10.0045 112.968 10.6447V12.1172C112.968 12.9495 112.455 13.2696 111.749 13.2696H110.595C109.761 13.2696 109.312 12.9495 109.312 12.1172V10.7087H109.12Z" fill="white"/>
</svg>
