<svg width="192" height="80" viewBox="0 0 192 80" fill="none" xmlns="http://www.w3.org/2000/svg">
<g clip-path="url(#clip0_6406_14791)">
<path d="M46.6562 53.6738H53.3171V33.1389H46.6562V53.6738Z" fill="white"/>
<path d="M54.7109 53.6738H61.373V25.1098H54.7109V53.6738Z" fill="white"/>
<path d="M62.7422 53.6738H69.4043V25.1098H62.7422V53.6738Z" fill="white"/>
<path d="M134.445 33.1419H141.108V35.2593C142.094 33.6615 143.552 33.0223 145.562 32.9419V40.0123H144.774C142.408 40.0123 141.108 41.3709 141.108 43.8882V53.6758H134.445V33.1419Z" fill="white"/>
<path d="M46.1328 27.9189C46.1328 25.7571 47.8627 24.0038 49.9954 24.0038C52.1292 24.0038 53.8591 25.7571 53.8591 27.9189C53.8591 30.0808 52.1292 31.834 49.9954 31.834C47.8627 31.834 46.1328 30.0808 46.1328 27.9189Z" fill="white"/>
<path d="M133.055 33.1759H126.392V34.7052C125.458 33.6704 123.28 32.815 121.624 32.815C115.811 32.815 111.891 37.3007 111.891 43.6135C111.891 49.9251 116.301 54 121.702 54C123.358 54 125.172 53.4402 126.392 52.5218V53.6805H133.055V44.6927C133.055 44.3243 133.053 43.9645 133.045 43.6135C133.053 43.2624 133.055 42.9027 133.055 42.5342V33.1759ZM122.005 47.234C119.871 47.234 118.142 45.4796 118.142 43.3179C118.142 41.156 119.871 39.4028 122.005 39.4028C124.138 39.4028 125.867 41.156 125.867 43.3179C125.867 45.4796 124.138 47.234 122.005 47.234Z" fill="white"/>
<path d="M160.35 25.1109V34.179C159.049 33.2606 157.552 32.8617 155.737 32.8617C150.18 32.8617 145.844 37.2158 145.844 43.4873C145.844 49.3991 150.022 53.9531 155.106 53.9531C157.197 53.9531 158.891 53.2739 160.468 51.7967V53.6739H167.012V25.1109H160.35ZM156.427 47.3731C154.294 47.3731 152.565 45.6188 152.565 43.4569C152.565 41.295 154.294 39.5419 156.427 39.5419C158.561 39.5419 160.291 41.295 160.291 43.4569C160.291 45.6188 158.561 47.3731 156.427 47.3731Z" fill="white"/>
<path d="M82.1423 32.8646C80.3287 32.8646 78.8302 33.2646 77.5293 34.1819V25.1138H70.8672V53.6778H77.4108V51.7996C78.9887 53.2778 80.6827 53.957 82.7731 53.957C87.8573 53.957 92.0358 49.4029 92.0358 43.4913C92.0358 37.2188 87.6998 32.8646 82.1423 32.8646ZM81.4332 47.4205C79.2993 47.4205 77.5694 45.6673 77.5694 43.5043C77.5694 41.3435 79.2993 39.5904 81.4332 39.5904C83.5658 39.5904 85.2957 41.3435 85.2957 43.5043C85.2957 45.6673 83.5658 47.4205 81.4332 47.4205Z" fill="white"/>
<path d="M36.025 32.8646C34.2115 32.8646 32.7129 33.2646 31.4121 34.1819V25.1138H24.75V53.6778H31.2937V51.7996C32.8715 53.2778 34.5655 53.957 36.6559 53.957C41.74 53.957 45.9186 49.4029 45.9186 43.4913C45.9186 37.2188 41.5837 32.8646 36.025 32.8646ZM35.3159 47.4205C33.1821 47.4205 31.4522 45.6673 31.4522 43.5043C31.4522 41.3435 33.1821 39.5904 35.3159 39.5904C37.4486 39.5904 39.1784 41.3435 39.1784 43.5043C39.1784 45.6673 37.4486 47.4205 35.3159 47.4205Z" fill="white"/>
<path d="M102 32.6919C96.2446 32.6919 91.6719 37.4863 91.6719 43.3175C91.6719 49.151 96.2044 53.9453 102 53.9453C107.835 53.9453 112.328 49.1107 112.328 43.3175C112.328 37.5265 107.755 32.6919 102 32.6919ZM102 47.1098C99.8662 47.1098 98.1374 45.3567 98.1374 43.1937C98.1374 41.0328 99.8662 39.2787 102 39.2787C104.134 39.2787 105.862 41.0328 105.862 43.1937C105.862 45.3567 104.134 47.1098 102 47.1098Z" fill="white"/>
</g>
<defs>
<clipPath id="clip0_6406_14791">
<rect width="142.254" height="29.999" fill="white" transform="translate(24.7422 24)"/>
</clipPath>
</defs>
</svg>
