<svg xmlns="http://www.w3.org/2000/svg" width="200" height="116" fill="none"><g clip-path="url(#a)"><path fill="#B3B3B3" d="M-51.5 50c0-7.732 6.268-14 14-14h74.3c7.731 0 14 6.268 14 14s-6.269 14-14 14h-74.3c-7.732 0-14-6.268-14-14ZM62.8 50c0-7.732 6.269-14 14-14h49.001c7.732 0 14 6.268 14 14s-6.268 14-14 14h-49c-7.732 0-14-6.268-14-14Z"/><path fill="#fff" d="M83.754 55.23h2.374v-7.32h-2.374v7.32ZM86.625 55.23H89V45.048h-2.375V55.23ZM89.488 55.23h2.375V45.048h-2.375V55.23ZM115.047 47.912h2.375v.754c.351-.57.871-.797 1.588-.826v2.52h-.281c-.844 0-1.307.485-1.307 1.382v3.49h-2.375v-7.32ZM83.566 46.05c0-.771.617-1.396 1.377-1.396s1.377.625 1.377 1.395-.616 1.396-1.377 1.396c-.76 0-1.377-.625-1.377-1.396ZM114.556 47.923h-2.375v.546c-.333-.37-1.109-.674-1.7-.674-2.072 0-3.469 1.599-3.469 3.85 0 2.249 1.572 3.702 3.497 3.702.59 0 1.237-.2 1.672-.527v.413h2.375v-3.204c0-.132-.001-.26-.003-.385.002-.125.003-.253.003-.385v-3.336Zm-3.939 5.012a1.386 1.386 0 0 1-1.377-1.396c0-.77.616-1.396 1.377-1.396s1.377.625 1.377 1.396c0 .77-.616 1.396-1.377 1.396ZM124.28 45.048v3.232c-.463-.327-.997-.47-1.644-.47-1.981 0-3.527 1.553-3.527 3.788 0 2.108 1.49 3.731 3.302 3.731.745 0 1.349-.242 1.911-.769v.67h2.333V45.048h-2.375Zm-1.398 7.936a1.387 1.387 0 0 1-1.377-1.396c0-.771.616-1.396 1.377-1.396s1.377.625 1.377 1.396c0 .77-.616 1.396-1.377 1.396ZM96.406 47.813c-.647 0-1.18.142-1.645.47V45.05h-2.374v10.182h2.332v-.67c.563.527 1.167.77 1.912.77 1.812 0 3.302-1.624 3.302-3.731 0-2.236-1.546-3.788-3.527-3.788ZM96.153 53c-.76 0-1.377-.625-1.377-1.396 0-.77.617-1.395 1.377-1.395s1.377.625 1.377 1.395c0 .771-.617 1.396-1.377 1.396ZM79.964 47.813c-.646 0-1.18.142-1.644.47V45.05h-2.375v10.182h2.333v-.67c.562.527 1.166.77 1.911.77 1.813 0 3.302-1.624 3.302-3.731 0-2.236-1.545-3.788-3.527-3.788ZM79.712 53c-.761 0-1.378-.625-1.378-1.396 0-.77.617-1.395 1.378-1.395.76 0 1.376.625 1.376 1.395 0 .771-.616 1.396-1.376 1.396Z"/><path fill="#fff" d="M103.482 47.751c-2.051 0-3.681 1.71-3.681 3.788 0 2.08 1.615 3.788 3.681 3.788 2.08 0 3.682-1.723 3.682-3.788 0-2.065-1.63-3.788-3.682-3.788Zm0 5.14c-.76 0-1.377-.625-1.377-1.396 0-.77.617-1.396 1.377-1.396.761 0 1.377.625 1.377 1.396 0 .77-.616 1.396-1.377 1.396Z"/><path fill="#B3B3B3" d="M151.801 50c0-7.732 6.268-14 14-14H240.1c7.732 0 14 6.268 14 14s-6.268 14-14 14h-74.299c-7.732 0-14-6.268-14-14Z"/><path fill="#27272A" d="M-74 14c0-7.732 6.268-14 14-14h46.2c7.732 0 14 6.268 14 14s-6.268 14-14 14H-60c-7.732 0-14-6.268-14-14Z" opacity=".5"/><path fill="#B3B3B3" d="M8.2 14c0-7.732 6.267-14 14-14h53c7.731 0 14 6.268 14 14s-6.269 14-14 14h-53c-7.733 0-14-6.268-14-14Z"/><g clip-path="url(#b)"><path fill="#C6002B" d="M38.846 6.898a5.245 5.245 0 0 0-2.471.64 5.301 5.301 0 0 0-1.887 1.734 5.178 5.178 0 0 0-2.556-2.086 5.124 5.124 0 0 0-3.286-.108 5.17 5.17 0 0 0-2.686 1.914 5.248 5.248 0 0 0-.998 3.16c0 1.83 1.157 3.153 2.352 4.36l4.706 4.475a.385.385 0 0 0 .655-.272v-3.503c0-.485.191-.95.531-1.294a1.804 1.804 0 0 1 2.564 0c.34.344.53.809.53 1.294v3.503a.392.392 0 0 0 .24.354.383.383 0 0 0 .417-.082l4.705-4.476c1.196-1.206 2.353-2.53 2.353-4.359a5.258 5.258 0 0 0-.383-2.008 5.22 5.22 0 0 0-1.117-1.705 5.166 5.166 0 0 0-1.682-1.14 5.128 5.128 0 0 0-1.987-.401Zm-9.063 9.263a.347.347 0 0 1-.27.117.268.268 0 0 1-.232-.078c-1.542-1.401-2.314-2.841-2.314-4.281.015-.66.183-1.306.492-1.888a4.191 4.191 0 0 1 1.282-1.46.344.344 0 0 1 .463.117.352.352 0 0 1-.116.506 3.57 3.57 0 0 0-1.018 1.2 3.605 3.605 0 0 0-.409 1.525c0 1.245.695 2.49 2.083 3.736a.35.35 0 0 1 .039.506Zm2.314-1.323a.348.348 0 0 1-.309.155h-.192a3.408 3.408 0 0 1-1.244-1.21 3.448 3.448 0 0 1-.492-1.67 2.9 2.9 0 0 1 .413-1.503 2.865 2.865 0 0 1 1.13-1.066.382.382 0 0 1 .501.156.392.392 0 0 1-.154.467c-.35.19-.646.47-.856.812a2.31 2.31 0 0 0-.34 1.134c.03.473.176.93.425 1.331.249.401.594.733 1.002.966a.35.35 0 0 1 .116.428Zm2.391-.934c-.313 0-.618-.094-.878-.27a1.61 1.61 0 0 1-.24-2.455 1.578 1.578 0 0 1 1.723-.345c.29.12.536.325.71.587.174.263.267.571.267.887a1.57 1.57 0 0 1-.452 1.14 1.541 1.541 0 0 1-1.13.456Zm2.893 1.05h-.154a.382.382 0 0 1-.348-.155.431.431 0 0 1 .155-.506c.408-.229.751-.56.994-.963.244-.403.38-.862.394-1.334.003-.4-.103-.793-.308-1.136a2.169 2.169 0 0 0-.849-.81.35.35 0 0 1-.154-.467.387.387 0 0 1 .501-.155c.464.247.852.616 1.124 1.068.272.453.417.971.42 1.5a3.487 3.487 0 0 1-.496 1.719c-.312.519-.753.946-1.28 1.24Zm4.667-3.035c0 1.44-.772 2.88-2.314 4.281a.308.308 0 0 1-.27.078.423.423 0 0 1-.27-.117.35.35 0 0 1 .038-.506c1.389-1.245 2.083-2.49 2.083-3.736a3.489 3.489 0 0 0-.397-1.532 3.455 3.455 0 0 0-1.03-1.193.39.39 0 0 1-.116-.506.424.424 0 0 1 .502-.117 4.31 4.31 0 0 1 1.27 1.467c.308.58.48 1.223.504 1.88Z"/><path fill="#fff" d="M48.14 7.519h1.736v2.374h2.237V7.52h1.736v6.344h-1.736V11.45h-2.237v2.413h-1.735V7.52ZM54.35 11.452a2.474 2.474 0 0 1 .683-1.824 2.43 2.43 0 0 1 1.786-.745c1.658 0 2.43 1.246 2.43 2.686v.35h-3.24a.975.975 0 0 0 .36.616.958.958 0 0 0 .681.201 1.454 1.454 0 0 0 1.08-.506l.926.779c-.237.33-.55.595-.915.772a2.41 2.41 0 0 1-1.168.24c-1.543-.04-2.623-1.051-2.623-2.57Zm3.317-.467a.86.86 0 0 0-.248-.606.844.844 0 0 0-1.2 0 .86.86 0 0 0-.249.606h1.697ZM64.996 8.958h1.697v.973c.097-.328.303-.612.585-.804.281-.192.62-.279.958-.246v1.79h-.154c-.887 0-1.389.545-1.389 1.674v1.517h-1.697V8.958ZM69.278 12.346V10.36h-.579V8.96h.579V7.714h1.697V8.96h1.157v1.4h-1.157v1.636c0 .35.154.506.463.506.226-.01.448-.063.655-.156v1.323a2.144 2.144 0 0 1-1.157.273c-1.041 0-1.658-.428-1.658-1.596ZM46.48 7.052a.922.922 0 0 0-.654.273.938.938 0 0 0-.2 1.013.894.894 0 0 0 .503.486.88.88 0 0 0 .352.057c.235 0 .46-.094.627-.262a.9.9 0 0 0 .26-.633.903.903 0 0 0-.246-.659.887.887 0 0 0-.642-.275ZM64.34 11.411c0-1.518-1.08-2.569-2.623-2.569a2.641 2.641 0 0 0-2.121 1.012l.964.779a1.428 1.428 0 0 1 1.08-.506c.24-.007.475.072.665.22.19.15.323.36.376.597h-1.118c-1.389 0-2.122.545-2.122 1.518s.656 1.479 1.813 1.479a2.11 2.11 0 0 0 1.466-.584v.467h1.62v-2.413Zm-2.546 1.479c-.463 0-.733-.234-.733-.545 0-.311.232-.467.695-.467h.964a.942.942 0 0 1-.242.711.924.924 0 0 1-.684.301Z"/><path fill="#919395" d="M45.441 15.42a.352.352 0 0 1 .309-.35h.077a.307.307 0 0 1 .309.194l2.082 3.153 2.083-3.153a.388.388 0 0 1 .309-.195h.077a.352.352 0 0 1 .347.35v5.294a.351.351 0 0 1-.347.311.346.346 0 0 1-.309-.311v-4.398l-1.89 2.763a.31.31 0 0 1-.27.16.308.308 0 0 1-.27-.16l-1.85-2.763v4.398a.345.345 0 0 1-.347.311.345.345 0 0 1-.31-.311V15.42ZM52.694 20.636V15.46a.314.314 0 0 1 .18-.324.306.306 0 0 1 .128-.026h3.626a.307.307 0 0 1 .308.31.312.312 0 0 1-.308.273H53.35v2.024h2.892a.307.307 0 0 1 .309.312.307.307 0 0 1-.308.311H53.35v2.063h3.317a.307.307 0 0 1 .308.272.313.313 0 0 1-.09.22.307.307 0 0 1-.218.092h-3.665a.306.306 0 0 1-.233-.105.312.312 0 0 1-.075-.246ZM60.29 20.364c1.466 0 2.392-1.012 2.392-2.296a2.278 2.278 0 0 0-.68-1.706 2.234 2.234 0 0 0-1.712-.63h-1.388v4.632h1.388Zm-2.044-4.904c0-.093.036-.182.102-.248a.346.346 0 0 1 .245-.102h1.697c1.813 0 3.086 1.284 3.086 2.919 0 1.634-1.273 2.919-3.086 2.919h-1.697a.346.346 0 0 1-.347-.35V15.46ZM64.84 15.419a.352.352 0 0 1 .308-.35c.093 0 .18.036.246.102a.352.352 0 0 1 .102.248v5.293a.351.351 0 0 1-.347.311.345.345 0 0 1-.31-.31v-5.294ZM70.973 18.845l-1.35-3.036-1.35 3.036h2.7Zm-4.127 1.713 2.353-5.216a.429.429 0 0 1 .424-.311h.039a.42.42 0 0 1 .385.311l2.392 5.216c0 .038.038.116.038.155a.35.35 0 0 1-.347.312c-.154 0-.231-.117-.308-.234l-.618-1.362h-3.2l-.58 1.362a.389.389 0 0 1-.347.234.27.27 0 0 1-.27-.312c0-.054.013-.108.04-.155Z"/><path fill="#fff" d="M46.48 9.31h-.038a.883.883 0 0 0-.627.261.9.9 0 0 0-.26.633v3.659h1.851v-3.659a.938.938 0 0 0-.284-.635.921.921 0 0 0-.642-.26Z"/></g><path fill="#B3B3B3" d="M97.2 14c0-7.732 6.267-14 13.999-14h73c7.732 0 14 6.268 14 14s-6.268 14-14 14h-73c-7.732 0-14-6.268-14-14Z"/><g clip-path="url(#c)"><path fill="#fff" d="M127.84 9.492h2.178l1.876 5.977 1.784-5.977h1.622l1.784 5.977 1.877-5.977h2.178l-3.175 8.99h-1.691l-1.784-5.654-1.784 5.677h-1.691l-3.174-9.013ZM141.348 10.559c0-.672.509-1.205 1.204-1.205.719 0 1.228.533 1.228 1.205 0 .648-.509 1.204-1.228 1.204a1.182 1.182 0 0 1-1.204-1.204Zm.231 1.737h1.947v6.186h-1.947v-6.186ZM144.406 9.492h1.97v8.99h-1.97v-8.99ZM153.604 9.492v8.989h-1.946v-.88c-.324.625-1.112 1.042-1.969 1.042-1.854 0-2.919-1.39-2.919-3.267 0-1.853 1.135-3.266 2.942-3.266.903 0 1.599.417 1.946 1.042v-3.66h1.946Zm-1.876 5.908c0-.88-.51-1.622-1.483-1.622-.904 0-1.483.672-1.483 1.622 0 .926.556 1.621 1.483 1.621.973 0 1.483-.718 1.483-1.621ZM161.18 16.002c0 1.553-1.089 2.503-2.873 2.503h-3.846V9.492h3.707c1.784 0 2.896.88 2.896 2.34 0 1.159-.672 1.854-1.714 2.062 1.019.116 1.83.857 1.83 2.108Zm-4.634-5.004V13.2h1.159c.787 0 1.274-.417 1.274-1.089 0-.672-.464-1.089-1.274-1.089h-1.159v-.023Zm2.526 4.726c0-.671-.51-1.112-1.252-1.112h-1.297v2.294h1.297c.788 0 1.252-.417 1.252-1.182ZM161.621 12.296h1.97v1.297c.208-.926.949-1.39 1.714-1.39.232 0 .371.024.51.047v1.83c-.232-.023-.348-.046-.603-.046-1.066 0-1.621.695-1.621 2.062v2.386h-1.97v-6.186ZM165.84 15.4c0-1.853 1.135-3.266 2.942-3.266.904 0 1.599.417 1.946 1.043v-.88h1.947v6.185h-1.947v-.88c-.324.625-1.112 1.042-1.969 1.042-1.853.023-2.919-1.39-2.919-3.243Zm4.958 0c0-.88-.51-1.621-1.483-1.621-.903 0-1.483.672-1.483 1.622 0 .927.556 1.622 1.483 1.622.973 0 1.483-.719 1.483-1.622ZM173.297 10.559c0-.672.51-1.205 1.205-1.205.695 0 1.228.533 1.228 1.205 0 .648-.51 1.204-1.228 1.204-.719 0-1.205-.533-1.205-1.204Zm.232 1.737h1.946v6.186h-1.946v-6.186ZM176.355 12.296h1.97v.903c.371-.695 1.066-1.065 2.015-1.065 1.506 0 2.271.857 2.271 2.525v3.823h-1.969v-3.174c0-1.043-.302-1.506-1.089-1.506-.788 0-1.205.51-1.205 1.46v3.243h-1.969v-6.21h-.024ZM182.725 12.458h-.163v-.162h.51v.162h-.162v.58h-.185v-.58Zm.44-.162h.278l.139.487.139-.487h.278v.741h-.185v-.533l-.163.557h-.162l-.162-.556v.556h-.185v-.765h.023Z"/><path fill="#43C5E4" d="m126.472 12.018-2.781 6.464-2.085-4.842 1.367-3.128a1.93 1.93 0 0 1 1.761-1.158c1.367 0 2.27 1.413 1.738 2.664Zm-11.399-1.506a1.929 1.929 0 0 0-1.761-1.158c-1.367 0-2.294 1.413-1.761 2.664l1.715 4.008a4.08 4.08 0 0 0 3.73 2.456h1.483l-3.406-7.97Zm4.657 0a1.93 1.93 0 0 0-1.761-1.158c-1.367 0-2.294 1.413-1.761 2.664l2.78 6.487h4.147l-3.405-7.993Z"/><path fill="#fff" d="M124.733 12.714a1.437 1.437 0 1 0 0-2.873 1.437 1.437 0 0 0 0 2.873ZM117.991 12.714a1.437 1.437 0 1 0 0-2.873 1.437 1.437 0 0 0 0 2.873ZM113.311 12.714a1.437 1.437 0 1 0 0-2.873 1.437 1.437 0 0 0 0 2.873Z"/><path fill="#555759" d="M125.175 10.93c-.093 0-.186.023-.279.046l.279.741-.742-.277c-.023.092-.046.185-.046.277 0 .44.347.788.788.788a.78.78 0 0 0 .787-.788c.023-.417-.347-.787-.787-.787ZM118.456 10.003c-.093 0-.186.024-.278.047l.278.741-.742-.278c-.023.093-.046.185-.046.278 0 .44.348.788.788.788a.78.78 0 0 0 .787-.788.795.795 0 0 0-.787-.788ZM112.846 10.93c-.092 0-.185.023-.278.046l.278.741-.741-.277c-.023.092-.046.185-.046.277 0 .44.347.788.787.788.44 0 .788-.347.788-.788a.797.797 0 0 0-.788-.787Z"/></g><path fill="#B3B3B3" d="M-72 86c0-7.732 6.268-14 14-14h52.585c7.731 0 14 6.268 14 14s-6.268 14-14 14H-58c-7.732 0-14-6.268-14-14ZM16.586 86c0-7.732 6.268-14 14-14h53c7.732 0 14 6.268 14 14s-6.268 14-14 14h-53c-7.732 0-14-6.268-14-14Z"/><g clip-path="url(#d)"><path fill="#fff" d="M38.63 87.696c-1.043 0-1.917-.89-1.89-2.004 0-1.085.875-1.976 1.918-1.976s1.917.89 1.89 2.004c0 1.085-.875 1.976-1.918 1.976Zm.028-5.984c-2.227-.028-4.06 1.753-4.06 3.98-.028 2.199 1.776 4.008 4.032 4.008 2.227.028 4.06-1.753 4.06-3.98 0-2.227-1.804-3.98-4.032-4.008Z"/><path fill="#fff" d="m46.469 87.613 1.353 2.004 2.51.028-2.594-3.87 2.65-3.84h-2.51l-1.38 1.976-1.382-2.004h-2.51l2.594 3.841-2.65 3.841h2.537l1.382-1.976Zm-17.622-5.817h-2.425l4.032 7.821 4.145-7.766-2.397-.028-1.72 3.201-1.635-3.228Z"/><path fill="#EF5654" d="m76.685 89.8.052-7.681 2.171.014-.052 7.682-2.17-.014Zm-12.96-2.02v-.974l3.411.028.029-1.865-3.44-.028v-.947h3.721v-1.948l-5.977-.028-.028 7.683 5.95.055.027-1.948-3.693-.028Zm7.866.056h-.902l.028-3.786h.903c1.07 0 1.917.863 1.917 1.893s-.874 1.893-1.946 1.893Zm.226-5.734-3.27-.028-.057 7.682 3.27.028c2.143.028 3.92-1.698 3.92-3.813.028-2.144-1.72-3.87-3.863-3.87ZM82.7 87.279l.987-2.84.959 2.84H82.7Zm2.792 2.589 2.255.027-2.763-7.71-2.537-.028-2.848 7.655 2.255.028.31-.835 3.074.028.254.835Zm-31.918-4.454 2.2 4.259 2.283-4.231-.028 4.23 2.171.029.028-7.683-2.706-.028-1.692 3.201-1.664-3.228h-2.735l-.056 7.682h2.171l.028-4.231Z"/></g><path fill="#B3B3B3" d="M105.586 86c0-7.732 6.268-14 14-14h52c7.732 0 14 6.268 14 14s-6.268 14-14 14h-52c-7.732 0-14-6.268-14-14Z"/><path fill="#fff" fill-rule="evenodd" d="M144.786 88.598h-1.394v-5.2h1.394v5.2Zm8.943 0h-1.394v-5.2h1.394v5.2Zm7.796 0h-1.394v-5.2h1.394v5.2Zm-23.079 0h-1.398v-2.823c0-1.326.857-2.486 2.569-2.486 1.591 0 2.513 1.168 2.513 2.486v2.823h-1.399V85.72c0-.644-.504-1.136-1.148-1.136a1.107 1.107 0 0 0-1.141 1.071V88.602l.004-.004Zm32.004 0h-1.395v-2.823c0-1.326.857-2.486 2.569-2.486 1.592 0 2.509 1.168 2.509 2.486v2.823h-1.391V85.72c0-.644-.508-1.136-1.148-1.136a1.107 1.107 0 0 0-1.145 1.137v2.88-.004h.001Zm-21.889-2.024 1.425-3.176h1.447l-2.387 5.2h-.966l-2.384-5.2h1.44l1.429 3.176h-.004Zm6.965.44c.4.334.905.515 1.426.511.375 0 .663-.181.663-.435 0-.785-2.516-.504-2.516-2.18 0-1 .962-1.622 1.993-1.622.674 0 1.413.258 1.758.527l-.652 1.008a1.767 1.767 0 0 0-1-.353c-.383 0-.709.152-.709.417 0 .678 2.52.406 2.52 2.213 0 .997-.974 1.606-2.069 1.606a3.56 3.56 0 0 1-2.084-.697l.67-.995Zm9.766.405c.815 0 1.372-.633 1.372-1.414 0-.784-.557-1.428-1.372-1.428-.811 0-1.371.644-1.371 1.428-.001.78.56 1.414 1.371 1.414Zm0-4.13c1.576 0 2.763 1.212 2.763 2.716a2.694 2.694 0 0 1-2.686 2.703h-.077a2.71 2.71 0 0 1 0-5.42Zm-30.779.11h1.394v2.822c0 1.327-.86 2.486-2.573 2.486a2.408 2.408 0 0 1-2.508-2.487v-2.823h1.39v2.88c0 .628.509 1.137 1.137 1.137h.011c.606 0 1.148-.428 1.148-1.137.001.001.001-2.879.001-2.879Z" clip-rule="evenodd"/><path fill="#00C56E" fill-rule="evenodd" d="M121.375 80.45v6.283c.311 0 2.058.045 3.535-.087.372-.038.736-.083 1.084-.144.849-.163 1.565-.417 1.815-.626v-4.801c-.648-.481-3.372-.625-6.434-.625Z" clip-rule="evenodd"/><path fill="#1717EF" fill-rule="evenodd" d="M127.81 85.96v-.083c-.25.21-.966.463-1.819.626a17.29 17.29 0 0 1-1.081.144c-1.478.133-3.221.087-3.535.087v.11l.008.705.008.2c.008.303.023.607.042.902.038.622.11 1.206.216 1.69.121.542.292.967.53 1.19l.011.011.235.008c1.827 0 3.438-.91 4.411-2.3a5.535 5.535 0 0 0 .785-1.845c.125-.455.19-.94.19-1.44v-.005" clip-rule="evenodd"/><path fill="#FF161F" fill-rule="evenodd" d="M122.179 91.531c-.239-.224-.409-.644-.531-1.19a11.726 11.726 0 0 1-.216-1.69 26.05 26.05 0 0 1-.057-1.81v-.107c-1.417 0-2.649-.106-3.236-.212-.618-.114-1.027-.34-1.099-.455a5.354 5.354 0 0 0 .982 3.191 5.377 5.377 0 0 0 4.168 2.285l-.011-.012Z" clip-rule="evenodd"/><path fill="#E621BB" fill-rule="evenodd" d="M117.248 80.822a.21.21 0 0 0-.209.209v5.036c.072.114.481.341 1.099.455l.337.05c.655.086 1.709.162 2.898.162v-3.873c-1.339-1.728-3.416-2.039-4.125-2.039Z" clip-rule="evenodd"/><path fill="#B3B3B3" d="M193.586 86c0-7.732 6.268-14 14-14h52.584c7.732 0 14 6.268 14 14s-6.268 14-14 14h-52.584c-7.732 0-14-6.268-14-14Z"/></g><defs><clipPath id="a"><path fill="#fff" d="M0 0h200v116H0z"/></clipPath><clipPath id="b"><path fill="#fff" d="M24.96 6.897h47.48v14.206H24.96z"/></clipPath><clipPath id="c"><path fill="#fff" d="M111.398 9.355h72.6v9.29h-72.6z"/></clipPath><clipPath id="d"><path fill="#fff" d="M26.39 82.065h61.388v7.87H26.39z"/></clipPath></defs></svg>