<svg xmlns="http://www.w3.org/2000/svg" width="16" height="16" fill="none"><g clip-path="url(#a)"><path fill="#A1A1AA" d="M14.036 4.787c.007.141.007.275.007.416.006 4.269-3.13 9.197-8.866 9.197A8.639 8.639 0 0 1 .4 12.947a6.115 6.115 0 0 0 4.612-1.344c-1.334-.026-2.507-.928-2.915-2.246.47.096.951.077 1.408-.058-1.45-.294-2.494-1.619-2.5-3.161v-.039c.432.25.92.39 1.413.403-1.364-.947-1.79-2.835-.963-4.313 1.587 2.022 3.92 3.245 6.427 3.38a3.32 3.32 0 0 1 .902-3.092 3.05 3.05 0 0 1 4.414.14c.697-.14 1.37-.409 1.982-.786a3.237 3.237 0 0 1-1.371 1.785 6.242 6.242 0 0 0 1.79-.505 6.512 6.512 0 0 1-1.562 1.676Z"/></g><defs><clipPath id="a"><path fill="#fff" d="M-.001 0h16v16h-16z"/></clipPath></defs></svg>