<svg xmlns="http://www.w3.org/2000/svg" width="16" height="16" fill="none"><g clip-path="url(#a)"><path fill="#A1A1AA" d="M15.67 4.153a2.004 2.004 0 0 0-1.41-1.41C13.008 2.4 8 2.4 8 2.4s-5.008 0-6.26.33A2.046 2.046 0 0 0 .33 4.153C0 5.405 0 8.001 0 8.001s0 2.61.33 3.849a2.005 2.005 0 0 0 1.41 1.41c1.265.342 6.26.342 6.26.342s5.008 0 6.26-.329a2.004 2.004 0 0 0 1.41-1.41C16 10.61 16 8.015 16 8.015s.013-2.61-.33-3.862Z"/><path fill="#09090B" d="m6.405 10.4 4.165-2.399-4.165-2.398V10.4Z"/></g><defs><clipPath id="a"><path fill="#fff" d="M0 0h16v16H0z"/></clipPath></defs></svg>