<svg xmlns="http://www.w3.org/2000/svg" width="16" height="16" fill="none"><mask id="a" width="16" height="8" x="0" y="4" maskUnits="userSpaceOnUse" style="mask-type:luminance"><path fill="#fff" d="m11.604 6.499 3.232-2.363c.282-.23.497-.178.497.246v7.203c0 .476-.267.424-.497.246l-3.232-2.362v-2.97ZM.667 4.403v5.364a2.2 2.2 0 0 0 2.21 2.19h7.831c.22 0 .398-.178.403-.398v-5.37A2.2 2.2 0 0 0 8.901 4H1.07a.41.41 0 0 0-.403.403Z"/></mask><g mask="url(#a)"><path fill="#A1A1AA" d="M.049 3.382h15.908v9.193H.049V3.382Z"/></g></svg>