<svg xmlns="http://www.w3.org/2000/svg" width="16" height="16" fill="none"><path fill="#A1A1AA" d="M15.326 4.852c-.065 1.43-1.062 3.389-2.99 5.875-1.995 2.597-3.682 3.895-5.062 3.895-.855 0-1.579-.79-2.17-2.372L3.921 7.9C3.48 6.32 3.01 5.53 2.508 5.53c-.11 0-.494.23-1.151.692l-.69-.891c.723-.637 1.438-1.274 2.14-1.912.965-.836 1.69-1.276 2.173-1.32 1.142-.11 1.844.672 2.108 2.345.285 1.806.482 2.929.593 3.368.329 1.498.69 2.246 1.086 2.246.307 0 .768-.486 1.383-1.457.614-.972.944-1.711.988-2.22.087-.838-.242-1.258-.988-1.258-.35 0-.713.08-1.085.24.72-2.365 2.098-3.514 4.13-3.448 1.508.044 2.218 1.023 2.131 2.938Z"/></svg>