<svg xmlns="http://www.w3.org/2000/svg" width="16" height="16" fill="none"><path fill="#A1A1AA" d="M14.09 0H1.91C.852 0 0 .853 0 1.91v12.18C0 15.148.853 16 1.91 16h12.18c1.057 0 1.91-.853 1.91-1.91V1.91C16 .852 15.147 0 14.09 0Zm-1.998 8.14c-.127.37-.343.916-.662 1.432-.337.554-.712.936-1.107 1.127a1.387 1.387 0 0 1-.624.152c-.082 0-.165-.006-.242-.025a1.626 1.626 0 0 1-.827-.452c-.445-.433-.827-1.165-1.177-2.247-.35-1.088-.669-1.546-.872-1.744-.102-.095-.166-.12-.198-.127-.019 0-.05 0-.114.026-.178.082-.401.324-.617.668-.21.33-.414.75-.573 1.196a.616.616 0 0 1-.79.37.619.619 0 0 1-.382-.783c.134-.37.363-.917.688-1.432.35-.554.732-.93 1.133-1.12.286-.134.58-.179.872-.128.299.051.579.204.834.446.451.433.84 1.17 1.19 2.253.35 1.088.662 1.553.865 1.744.102.101.166.12.185.12.013 0 .038.007.095-.025.172-.083.389-.324.592-.662.204-.33.395-.757.547-1.196a.618.618 0 0 1 .783-.382c.16.05.287.165.363.312a.62.62 0 0 1 .032.464l.006.013Z"/></svg>