<svg xmlns="http://www.w3.org/2000/svg" width="16" height="16" fill="none"><g clip-path="url(#a)"><path fill="#A1A1AA" d="M14.818 0H1.18A1.181 1.181 0 0 0 0 1.181V14.82a1.181 1.181 0 0 0 1.18 1.18h13.638a1.181 1.181 0 0 0 1.18-1.18V1.18a1.181 1.181 0 0 0-1.18-1.18ZM4.768 13.63H2.362V5.989h2.406v7.64Zm-1.205-8.7a1.381 1.381 0 1 1 1.39-1.38 1.361 1.361 0 0 1-1.39 1.38Zm10.071 8.707H11.23V9.462c0-1.23-.523-1.61-1.199-1.61-.713 0-1.413.537-1.413 1.641v4.143H6.212V5.995h2.314v1.058h.03c.233-.47 1.046-1.273 2.287-1.273 1.342 0 2.792.797 2.792 3.13v4.726Z"/></g><defs><clipPath id="a"><path fill="#fff" d="M0 0h16v16H0z"/></clipPath></defs></svg>