<svg xmlns="http://www.w3.org/2000/svg" width="16" height="16" fill="none"><path fill="#A1A1AA" d="M9.442 8.945c.566-.449.566-1.322 0-1.785a12.963 12.963 0 0 0-2.636-1.695c-.651-.312-1.378.122-1.482.864a14.376 14.376 0 0 0-.085 3.362c.07.75.788 1.2 1.45.911A11.997 11.997 0 0 0 9.441 8.95v-.005Zm4.236-3.301a3.574 3.574 0 0 1 .009 4.812 15.98 15.98 0 0 1-8.01 4.784 3.126 3.126 0 0 1-3.768-2.187c-.93-3.178-.793-6.772.104-9.964C2.486 1.413 4.063.36 5.687.747c3.008.718 5.832 2.564 7.99 4.897Z"/></svg>