<svg xmlns="http://www.w3.org/2000/svg" width="12" height="12" fill="none"><path fill="#F40407" fill-rule="evenodd" d="M7.372.265a2.329 2.329 0 0 1 3.13.96A2.28 2.28 0 0 1 9.53 4.32l-.931.49c.802.029 1.566.47 1.967 1.222a2.28 2.28 0 0 1-.97 3.096l-4.964 2.607a2.328 2.328 0 0 1-3.129-.96 2.28 2.28 0 0 1 .971-3.095l.93-.49A2.318 2.318 0 0 1 1.44 5.968a2.28 2.28 0 0 1 .97-3.096L7.373.265ZM4.694 4.153l3.004 1.855-3.004 1.845v-3.7Z" clip-rule="evenodd"/><path fill="#fff" fill-rule="evenodd" d="M4.688 4.152 7.69 6.007 4.688 7.853v-3.7Z" clip-rule="evenodd"/></svg>