<svg xmlns="http://www.w3.org/2000/svg" width="12" height="12" fill="none"><g clip-path="url(#a)"><rect width="12" height="12" fill="#fff" rx="1.165"/><path fill="#0A66C2" d="M11.114 0H.886A.886.886 0 0 0 0 .886v10.228A.886.886 0 0 0 .886 12h10.228a.885.885 0 0 0 .886-.886V.886A.886.886 0 0 0 11.114 0ZM3.577 10.223H1.773V4.492h1.804v5.73Zm-.904-6.526a1.036 1.036 0 1 1 1.042-1.034 1.02 1.02 0 0 1-1.042 1.034Zm7.554 6.53H8.423v-3.13c0-.924-.392-1.209-.899-1.209-.535 0-1.06.404-1.06 1.232v3.107H4.66V4.496h1.735v.794h.023c.175-.353.784-.955 1.715-.955 1.007 0 2.095.598 2.095 2.348l-.001 3.544Z"/></g><defs><clipPath id="a"><rect width="12" height="12" fill="#fff" rx="1.165"/></clipPath></defs></svg>